<svg width="80" height="48" viewBox="0 0 80 48" fill="none" xmlns="http://www.w3.org/2000/svg">
<g clip-path="url(#clip0_16961_10732)">
<path d="M22.5249 17.3307C22.5249 18.3267 22.6578 19.1235 22.7907 19.7211C22.99 20.3187 23.2558 20.9163 23.6545 21.6468C23.7874 21.846 23.8538 22.0452 23.8538 22.2444C23.8538 22.51 23.7209 22.7756 23.3223 23.0412L21.6611 24.17C21.3954 24.3028 21.196 24.4356 20.9967 24.4356C20.7309 24.4356 20.4651 24.3028 20.1993 24.0372C19.8007 23.6388 19.5349 23.2404 19.2691 22.7756C19.0033 22.3108 18.7375 21.846 18.4718 21.1819C16.412 23.6388 13.8206 24.834 10.6312 24.834C8.3721 24.834 6.64452 24.17 5.31562 22.9084C3.98672 21.6468 3.32227 19.9203 3.32227 17.7955C3.32227 15.5379 4.11961 13.6786 5.71429 12.3506C7.30898 11.0226 9.50167 10.2922 12.2259 10.2922C13.1562 10.2922 14.0864 10.3586 15.0166 10.4914C16.0133 10.6242 17.01 10.8234 18.0731 11.089V9.16335C18.0731 7.17132 17.6744 5.7105 16.8106 4.91368C15.9468 4.11687 14.5515 3.71846 12.4917 3.71846C11.5615 3.71846 10.6312 3.85127 9.63456 4.05047C8.63788 4.31607 7.70765 4.58168 6.77741 4.98009C6.37874 5.11289 6.04652 5.24569 5.84718 5.31209C5.64785 5.31209 5.51496 5.37849 5.44851 5.37849C5.04984 5.37849 4.91695 5.11289 4.91695 4.58168V3.25366C4.91695 2.85525 4.98339 2.52325 5.11629 2.32404C5.24918 2.12484 5.51496 1.92564 5.84718 1.79283C6.77741 1.32803 7.90698 0.92962 9.16944 0.597615C10.4983 0.265609 11.8272 0.0664062 13.289 0.0664062C16.4784 0.0664062 18.7375 0.796818 20.2658 2.19124C21.7276 3.65206 22.4585 5.7769 22.4585 8.76495L22.5249 17.3307ZM11.7608 21.3811C12.6246 21.3811 13.5548 21.2483 14.4851 20.9163C15.4153 20.5843 16.2791 19.9867 17.01 19.1899C17.4086 18.6587 17.7409 18.1275 17.9402 17.4635C18.0731 16.7995 18.206 16.0691 18.206 15.1394V14.0106C17.4086 13.8114 16.6113 13.6786 15.7475 13.5458C14.8837 13.413 14.0864 13.413 13.2226 13.413C11.4286 13.413 10.1661 13.745 9.23589 14.4754C8.3721 15.2058 7.90698 16.2019 7.90698 17.5299C7.90698 18.7915 8.23921 19.7211 8.90366 20.3187C9.56811 21.1155 10.4983 21.3811 11.7608 21.3811ZM33.0897 24.3028C32.6246 24.3028 32.2924 24.2364 32.093 24.0372C31.8937 23.9044 31.6944 23.506 31.5615 22.9748L25.3156 2.39044C25.1827 1.85923 25.0498 1.52723 25.0498 1.32803C25.0498 0.92962 25.2492 0.664016 25.7143 0.664016H28.3057C28.8372 0.664016 29.1694 0.730417 29.3688 0.92962C29.5681 1.06242 29.7674 1.46083 29.9003 1.99204L34.3522 19.5883L38.4718 1.99204C38.6047 1.46083 38.7375 1.12882 39.0033 0.92962C39.2027 0.796818 39.6013 0.664016 40.0664 0.664016H42.1927C42.7243 0.664016 43.0565 0.730417 43.2558 0.92962C43.4552 1.06242 43.6545 1.46083 43.7874 1.99204L47.9734 19.7875L52.5581 1.99204C52.691 1.46083 52.8904 1.12882 53.0897 0.92962C53.289 0.796818 53.6213 0.664016 54.1528 0.664016H56.6113C57.01 0.664016 57.2757 0.863219 57.2757 1.32803C57.2757 1.46083 57.2757 1.59363 57.2093 1.72643C57.2093 1.85923 57.1429 2.12484 57.01 2.39044L50.5648 22.9748C50.4319 23.506 50.2326 23.838 50.0332 24.0372C49.8339 24.17 49.5017 24.3028 49.0365 24.3028H46.7774C46.2459 24.3028 45.9136 24.2364 45.7143 24.0372C45.515 23.838 45.3156 23.506 45.1827 22.9748L41.0631 5.8433L36.9435 22.9748C36.8106 23.506 36.6777 23.838 36.412 24.0372C36.2126 24.2364 35.814 24.3028 35.3488 24.3028H33.0897ZM67.309 24.9668C65.9136 24.9668 64.5183 24.834 63.1894 24.502C61.8605 24.17 60.7973 23.838 60.1329 23.4396C59.7342 23.174 59.402 22.9084 59.3356 22.7092C59.2691 22.51 59.1362 22.178 59.1362 21.9788V20.6507C59.1362 20.1195 59.3356 19.8539 59.7342 19.8539C59.8671 19.8539 60.0664 19.8539 60.1993 19.9203C60.3322 19.9867 60.598 20.0531 60.8638 20.1859C61.794 20.5843 62.7243 20.9163 63.7874 21.1155C64.8505 21.3147 65.9136 21.4475 66.9767 21.4475C68.6379 21.4475 69.9668 21.1819 70.8306 20.5843C71.7608 19.9867 72.2259 19.1235 72.2259 18.0611C72.2259 17.3307 71.9601 16.7331 71.495 16.2019C71.0299 15.6707 70.0997 15.2722 68.8372 14.8074L64.9834 13.6122C63.0565 13.0146 61.5947 12.085 60.7309 10.8898C59.8671 9.69456 59.402 8.43294 59.402 7.03852C59.402 5.9097 59.6678 4.91368 60.1329 4.11687C60.598 3.32006 61.2625 2.52325 62.0598 1.92564C62.8571 1.32803 63.7874 0.863219 64.8505 0.531214C65.9136 0.199208 67.0432 0.0664062 68.1728 0.0664062C68.7708 0.0664062 69.3688 0.0664063 69.9668 0.199208C70.5648 0.265609 71.1628 0.398412 71.6944 0.464813C72.2259 0.597615 72.7575 0.730417 73.2226 0.863219C73.6877 0.996021 74.0864 1.19522 74.3522 1.32803C74.7508 1.52723 75.0166 1.72643 75.1495 1.99204C75.2824 2.19124 75.4153 2.52325 75.4153 2.85525V4.11687C75.4153 4.64808 75.2159 4.98009 74.8173 4.98009C74.6179 4.98009 74.2857 4.84728 73.8206 4.64808C72.2924 3.98407 70.6312 3.58566 68.7043 3.58566C67.1761 3.58566 65.9801 3.85127 65.1827 4.31607C64.3854 4.78088 63.9203 5.57769 63.9203 6.70651C63.9203 7.43692 64.186 8.10093 64.7176 8.56574C65.2492 9.09695 66.2459 9.56176 67.6412 10.0266L71.4286 11.2218C73.3555 11.8194 74.7508 12.6826 75.5482 13.745C76.3455 14.8074 76.7442 16.0691 76.7442 17.4635C76.7442 18.5923 76.4784 19.6547 76.0797 20.5179C75.6146 21.4475 74.9502 22.2444 74.1528 22.842C73.3555 23.506 72.3588 23.9708 71.2292 24.3028C69.9003 24.834 68.6379 24.9668 67.309 24.9668Z" fill="#252F3E"/>
<path fill-rule="evenodd" clip-rule="evenodd" d="M72.3579 37.915C63.5871 44.3559 50.8296 47.8087 39.9326 47.8087C24.5838 47.8087 10.7632 42.1646 0.331281 32.7357C-0.466062 32.0053 0.264835 31.0093 1.26151 31.5405C12.5572 38.1142 26.4442 42.0318 40.8628 42.0318C50.5638 42.0318 61.2615 40.0398 71.0954 35.8565C72.4908 35.2589 73.7532 36.8526 72.3579 37.915Z" fill="#FF9900"/>
<path fill-rule="evenodd" clip-rule="evenodd" d="M75.9457 33.7983C74.8162 32.3375 68.5703 33.1343 65.7132 33.4663C64.8494 33.5991 64.7165 32.8023 65.5138 32.2711C70.4972 28.7518 78.7364 29.7478 79.6667 30.943C80.5969 32.1383 79.4009 40.372 74.7497 44.2897C74.0188 44.8873 73.3544 44.5553 73.6866 43.7585C74.7497 41.1024 77.0753 35.1927 75.9457 33.7983Z" fill="#FF9900"/>
<path d="M22.5249 17.3307C22.5249 18.3267 22.6578 19.1235 22.7907 19.7211C22.99 20.3187 23.2558 20.9163 23.6545 21.6468C23.7874 21.846 23.8538 22.0452 23.8538 22.2444C23.8538 22.51 23.7209 22.7756 23.3223 23.0412L21.6611 24.17C21.3954 24.3028 21.196 24.4356 20.9967 24.4356C20.7309 24.4356 20.4651 24.3028 20.1993 24.0372C19.8007 23.6388 19.5349 23.2404 19.2691 22.7756C19.0033 22.3108 18.7375 21.846 18.4718 21.1819C16.412 23.6388 13.8206 24.834 10.6312 24.834C8.3721 24.834 6.64452 24.17 5.31562 22.9084C3.98672 21.6468 3.32227 19.9203 3.32227 17.7955C3.32227 15.5379 4.11961 13.6786 5.71429 12.3506C7.30898 11.0226 9.50167 10.2922 12.2259 10.2922C13.1562 10.2922 14.0864 10.3586 15.0166 10.4914C16.0133 10.6242 17.01 10.8234 18.0731 11.089V9.16335C18.0731 7.17132 17.6744 5.7105 16.8106 4.91368C15.9468 4.11687 14.5515 3.71846 12.4917 3.71846C11.5615 3.71846 10.6312 3.85127 9.63456 4.05047C8.63788 4.31607 7.70765 4.58168 6.77741 4.98009C6.37874 5.11289 6.04652 5.24569 5.84718 5.31209C5.64785 5.31209 5.51496 5.37849 5.44851 5.37849C5.04984 5.37849 4.91695 5.11289 4.91695 4.58168V3.25366C4.91695 2.85525 4.98339 2.52325 5.11629 2.32404C5.24918 2.12484 5.51496 1.92564 5.84718 1.79283C6.77741 1.32803 7.90698 0.92962 9.16944 0.597615C10.4983 0.265609 11.8272 0.0664062 13.289 0.0664062C16.4784 0.0664062 18.7375 0.796818 20.2658 2.19124C21.7276 3.65206 22.4585 5.7769 22.4585 8.76495L22.5249 17.3307ZM11.7608 21.3811C12.6246 21.3811 13.5548 21.2483 14.4851 20.9163C15.4153 20.5843 16.2791 19.9867 17.01 19.1899C17.4086 18.6587 17.7409 18.1275 17.9402 17.4635C18.0731 16.7995 18.206 16.0691 18.206 15.1394V14.0106C17.4086 13.8114 16.6113 13.6786 15.7475 13.5458C14.8837 13.413 14.0864 13.413 13.2226 13.413C11.4286 13.413 10.1661 13.745 9.23589 14.4754C8.3721 15.2058 7.90698 16.2019 7.90698 17.5299C7.90698 18.7915 8.23921 19.7211 8.90366 20.3187C9.56811 21.1155 10.4983 21.3811 11.7608 21.3811ZM33.0897 24.3028C32.6246 24.3028 32.2924 24.2364 32.093 24.0372C31.8937 23.9044 31.6944 23.506 31.5615 22.9748L25.3156 2.39044C25.1827 1.85923 25.0498 1.52723 25.0498 1.32803C25.0498 0.92962 25.2492 0.664016 25.7143 0.664016H28.3057C28.8372 0.664016 29.1694 0.730417 29.3688 0.92962C29.5681 1.06242 29.7674 1.46083 29.9003 1.99204L34.3522 19.5883L38.4718 1.99204C38.6047 1.46083 38.7375 1.12882 39.0033 0.92962C39.2027 0.796818 39.6013 0.664016 40.0664 0.664016H42.1927C42.7243 0.664016 43.0565 0.730417 43.2558 0.92962C43.4552 1.06242 43.6545 1.46083 43.7874 1.99204L47.9734 19.7875L52.5581 1.99204C52.691 1.46083 52.8904 1.12882 53.0897 0.92962C53.289 0.796818 53.6213 0.664016 54.1528 0.664016H56.6113C57.01 0.664016 57.2757 0.863219 57.2757 1.32803C57.2757 1.46083 57.2757 1.59363 57.2093 1.72643C57.2093 1.85923 57.1429 2.12484 57.01 2.39044L50.5648 22.9748C50.4319 23.506 50.2326 23.838 50.0332 24.0372C49.8339 24.17 49.5017 24.3028 49.0365 24.3028H46.7774C46.2459 24.3028 45.9136 24.2364 45.7143 24.0372C45.515 23.838 45.3156 23.506 45.1827 22.9748L41.0631 5.8433L36.9435 22.9748C36.8106 23.506 36.6777 23.838 36.412 24.0372C36.2126 24.2364 35.814 24.3028 35.3488 24.3028H33.0897ZM67.309 24.9668C65.9136 24.9668 64.5183 24.834 63.1894 24.502C61.8605 24.17 60.7973 23.838 60.1329 23.4396C59.7342 23.174 59.402 22.9084 59.3356 22.7092C59.2691 22.51 59.1362 22.178 59.1362 21.9788V20.6507C59.1362 20.1195 59.3356 19.8539 59.7342 19.8539C59.8671 19.8539 60.0664 19.8539 60.1993 19.9203C60.3322 19.9867 60.598 20.0531 60.8638 20.1859C61.794 20.5843 62.7243 20.9163 63.7874 21.1155C64.8505 21.3147 65.9136 21.4475 66.9767 21.4475C68.6379 21.4475 69.9668 21.1819 70.8306 20.5843C71.7608 19.9867 72.2259 19.1235 72.2259 18.0611C72.2259 17.3307 71.9601 16.7331 71.495 16.2019C71.0299 15.6707 70.0997 15.2722 68.8372 14.8074L64.9834 13.6122C63.0565 13.0146 61.5947 12.085 60.7309 10.8898C59.8671 9.69456 59.402 8.43294 59.402 7.03852C59.402 5.9097 59.6678 4.91368 60.1329 4.11687C60.598 3.32006 61.2625 2.52325 62.0598 1.92564C62.8571 1.32803 63.7874 0.863219 64.8505 0.531214C65.9136 0.199208 67.0432 0.0664062 68.1728 0.0664062C68.7708 0.0664062 69.3688 0.0664063 69.9668 0.199208C70.5648 0.265609 71.1628 0.398412 71.6944 0.464813C72.2259 0.597615 72.7575 0.730417 73.2226 0.863219C73.6877 0.996021 74.0864 1.19522 74.3522 1.32803C74.7508 1.52723 75.0166 1.72643 75.1495 1.99204C75.2824 2.19124 75.4153 2.52325 75.4153 2.85525V4.11687C75.4153 4.64808 75.2159 4.98009 74.8173 4.98009C74.6179 4.98009 74.2857 4.84728 73.8206 4.64808C72.2924 3.98407 70.6312 3.58566 68.7043 3.58566C67.1761 3.58566 65.9801 3.85127 65.1827 4.31607C64.3854 4.78088 63.9203 5.57769 63.9203 6.70651C63.9203 7.43692 64.186 8.10093 64.7176 8.56574C65.2492 9.09695 66.2459 9.56176 67.6412 10.0266L71.4286 11.2218C73.3555 11.8194 74.7508 12.6826 75.5482 13.745C76.3455 14.8074 76.7442 16.0691 76.7442 17.4635C76.7442 18.5923 76.4784 19.6547 76.0797 20.5179C75.6146 21.4475 74.9502 22.2444 74.1528 22.842C73.3555 23.506 72.3588 23.9708 71.2292 24.3028C69.9003 24.834 68.6379 24.9668 67.309 24.9668Z" fill="#252F3E"/>
<path fill-rule="evenodd" clip-rule="evenodd" d="M72.3579 37.915C63.5871 44.3559 50.8296 47.8087 39.9326 47.8087C24.5838 47.8087 10.7632 42.1646 0.331281 32.7357C-0.466062 32.0053 0.264835 31.0093 1.26151 31.5405C12.5572 38.1142 26.4442 42.0318 40.8628 42.0318C50.5638 42.0318 61.2615 40.0398 71.0954 35.8565C72.4908 35.2589 73.7532 36.8526 72.3579 37.915Z" fill="#FF9900"/>
<path fill-rule="evenodd" clip-rule="evenodd" d="M75.9457 33.7983C74.8162 32.3375 68.5703 33.1343 65.7132 33.4663C64.8494 33.5991 64.7165 32.8023 65.5138 32.2711C70.4972 28.7518 78.7364 29.7478 79.6667 30.943C80.5969 32.1383 79.4009 40.372 74.7497 44.2897C74.0188 44.8873 73.3544 44.5553 73.6866 43.7585C74.7497 41.1024 77.0753 35.1927 75.9457 33.7983Z" fill="#FF9900"/>
</g>
<defs>
<clipPath id="clip0_16961_10732">
<rect width="80" height="47.8088" fill="white"/>
</clipPath>
</defs>
</svg>
