<svg width="80" height="64" viewBox="0 0 80 64" fill="none" xmlns="http://www.w3.org/2000/svg">
<g clip-path="url(#clip0_16961_10716)">
<path d="M8.82516 8.33125C8.67422 3.99687 12.0513 0 16.6159 0H63.3898C67.9545 0 71.3316 3.99687 71.1806 8.33125C71.0356 12.4948 71.2239 17.8883 72.5812 22.2859C73.943 26.6972 76.2392 29.4855 80 29.8438V33.9062C76.2392 34.2645 73.943 37.0528 72.5812 41.4641C71.2239 45.8617 71.0356 51.2552 71.1806 55.4189C71.3316 59.7531 67.9545 63.75 63.3898 63.75H16.6159C12.0513 63.75 8.67422 59.7531 8.82531 55.4189C8.97016 51.2552 8.78187 45.8617 7.42437 41.4641C6.06281 37.0528 3.76094 34.2645 0 33.9062V29.8438C3.76078 29.4855 6.06281 26.6972 7.42437 22.2859C8.78187 17.8883 8.97016 12.4948 8.82516 8.33125Z" fill="url(#paint0_linear_16961_10716)"/>
<path d="M41.7347 48.8213C49.1248 48.8213 53.5781 45.2029 53.5781 39.2346C53.5781 34.7232 50.4006 31.4571 45.6825 30.94V30.7521C49.1489 30.1882 51.8691 26.9691 51.8691 23.3741C51.8691 18.2518 47.825 14.915 41.6625 14.915H27.7969V48.8213H41.7347ZM33.1891 19.215H40.3627C44.2623 19.215 46.4769 20.9538 46.4769 24.1024C46.4769 27.4625 43.9012 29.3422 39.2312 29.3422H33.1891V19.215ZM33.1891 44.5214V33.3604H40.3144C45.4177 33.3604 48.0656 35.24 48.0656 38.9057C48.0656 42.5711 45.49 44.5214 40.6273 44.5214H33.1891Z" fill="url(#paint1_linear_16961_10716)" stroke="white"/>
</g>
<defs>
<linearGradient id="paint0_linear_16961_10716" x1="11.8873" y1="1.68719" x2="81.7937" y2="57.1789" gradientUnits="userSpaceOnUse">
<stop stop-color="#9013FE"/>
<stop offset="1" stop-color="#6610F2"/>
</linearGradient>
<linearGradient id="paint1_linear_16961_10716" x1="30.2355" y1="17.1468" x2="45.8614" y2="43.5736" gradientUnits="userSpaceOnUse">
<stop stop-color="white"/>
<stop offset="1" stop-color="#F1E5FC"/>
</linearGradient>
<clipPath id="clip0_16961_10716">
<rect width="80" height="63.75" fill="white"/>
</clipPath>
</defs>
</svg>
